/vscmnt/brussel_pixiu_data/_data_brussel/112/vsc11236/PredSimResults/SUBJ09mtu3D/worker1.mot
version=1
nRows=8
nColumns=50
inDegrees=yes
endheader
                time	         pelvis_tilt	         pelvis_list	     pelvis_rotation	           pelvis_tx	           pelvis_ty	           pelvis_tz	       hip_flexion_r	     hip_adduction_r	      hip_rotation_r	        knee_angle_r	       ankle_angle_r	         mtp_angle_r	       hip_flexion_l	     hip_adduction_l	      hip_rotation_l	        knee_angle_l	       ankle_angle_l	         mtp_angle_l	    lumbar_extension	      lumbar_bending	     lumbar_rotation	 ercspn_r/activation	 intobl_r/activation	 extobl_r/activation	    abd_r/activation	    add_r/activation	hamstrings_r/activation	bifemsh_r/activation	glut_max_r/activation	iliopsoas_r/activation	rect_fem_r/activation	  vasti_r/activation	gastroc_r/activation	 soleus_r/activation	tib_ant_r/activation	 ercspn_l/activation	 intobl_l/activation	 extobl_l/activation	    abd_l/activation	    add_l/activation	hamstrings_l/activation	bifemsh_l/activation	glut_max_l/activation	iliopsoas_l/activation	rect_fem_l/activation	  vasti_l/activation	gastroc_l/activation	 soleus_l/activation	tib_ant_l/activation	
          1.91159230	         -3.46172018	          2.00915394	         -8.25654132	          2.37037445	          0.98324634	          0.00227049	        -16.36759756	         -3.75297751	         -3.80263690	         -7.98043758	          6.71582915	         33.49678104	         28.68195058	         -0.46018630	         -7.98773637	         -5.23019327	          2.31065709	          0.24706446	        -13.95963995	          0.27144087	          4.52278617	          0.01000802	          0.01000030	          0.01000062	          0.02619603	          0.01209000	          0.02950641	          0.19661144	          0.01470196	          0.01162745	          0.01000036	          0.01000021	          0.39777103	          0.18794058	          0.01000002	          0.01648303	          0.17015648	          0.05615308	          0.01000003	          0.20487167	          0.03506121	          0.19752473	          0.06873331	          0.16420873	          0.01322063	          0.01000014	          0.02321706	          0.01469855	          0.36266707	
          1.92433625	         -3.48858055	          2.08731482	         -8.20842971	          2.39075998	          0.98125189	          0.00175950	        -16.91370982	         -4.00965022	         -4.33385455	         -8.98943436	          5.46051360	         35.39285456	         28.60254250	         -0.31720663	         -8.16179244	         -7.09088394	          1.85666153	          0.21101600	        -13.49514380	         -0.18390214	          4.62192818	          0.01000206	          0.01000009	          0.01212416	          0.02160677	          0.01000036	          0.02665201	          0.16216748	          0.01212637	          0.01006228	          0.01000026	          0.01000016	          0.36217019	          0.15502393	          0.01000003	          0.01359550	          0.14034694	          0.04631568	          0.07588412	          0.16898057	          0.05841202	          0.16292068	          0.08955069	          0.13544116	          0.01090457	          0.01000010	          0.01914971	          0.01212400	          0.41570483	
          1.93708020	         -3.49852750	          2.17225040	         -8.12329494	          2.41136367	          0.97967825	          0.00117268	        -17.21351004	         -4.29250606	         -4.88500190	        -10.47089949	          4.07217342	         37.24865236	         28.41434953	         -0.15679350	         -8.31287912	         -8.78524982	          1.21821891	          0.19916530	        -13.02246054	         -0.65085951	          4.69647692	          0.02496258	          0.01000014	          0.01000041	          0.01782151	          0.01000065	          0.02468274	          0.13375763	          0.01000200	          0.01000292	          0.01000049	          0.01000051	          0.31331923	          0.12786545	          0.01000004	          0.01121414	          0.11575970	          0.03820169	          0.13368238	          0.18526942	          0.05782932	          0.13437884	          0.11981202	          0.11171335	          0.01000013	          0.01000010	          0.01579491	          0.01000006	          0.46993473	
          1.94982414	         -3.49310001	          2.25395627	         -8.00485048	          2.43180932	          0.97873619	          0.00050119	        -17.14189573	         -4.60340159	         -5.44347104	        -12.60142804	          2.56581191	         38.93576123	         28.28887766	          0.00071624	         -8.44791893	        -10.61643995	          0.67258260	          0.15839122	        -12.58497912	         -1.11837996	          4.74727271	          0.08100094	          0.01000014	          0.01000013	          0.01469938	          0.04496494	          0.02035888	          0.11032487	          0.01000008	          0.02356996	          0.01000036	          0.01000025	          0.25842915	          0.10546483	          0.01000002	          0.02979045	          0.09547987	          0.03150918	          0.18951057	          0.25120912	          0.05152519	          0.11083719	          0.16952601	          0.09214239	          0.01000028	          0.03183724	          0.01302788	          0.01000501	          0.47982105	
          1.96256809	         -3.47372191	          2.32553081	         -7.85600763	          2.45184662	          0.97858367	         -0.00023663	        -16.60729303	         -4.94554556	         -6.02288294	        -15.50010371	          0.93865183	         40.24667207	         28.26664073	          0.14294705	         -8.55302704	        -12.69237072	          0.55789672	          0.11755143	        -12.20709042	         -1.57961976	          4.77375754	          0.09361728	          0.01000019	          0.01000016	          0.01212421	          0.11911742	          0.01679536	          0.09099731	          0.01000004	          0.04340622	          0.01000016	          0.01000006	          0.21315518	          0.08698855	          0.01000007	          0.02480120	          0.07875285	          0.02598912	          0.21028432	          0.29393484	          0.05009588	          0.09141979	          0.19168014	          0.07600006	          0.01000022	          0.11837178	          0.01074562	          0.01000019	          0.47401437	
          1.97531204	         -3.44346225	          2.37140570	         -7.67552714	          2.47135040	          0.97931716	         -0.00100465	        -15.55988706	         -5.31713250	         -6.67409712	        -19.23823923	         -0.70363372	         40.66519004	         28.21674546	          0.27320389	         -8.61615398	        -14.74538324	          0.80408384	          0.08518590	        -11.89958628	         -2.01891367	          4.77322949	          0.09343368	          0.01000019	          0.01000017	          0.01000019	          0.16737820	          0.01385435	          0.07505578	          0.01000002	          0.03580268	          0.01000014	          0.01000003	          0.17581272	          0.07174911	          0.01000003	          0.02046174	          0.06495622	          0.02143612	          0.21154712	          0.32724343	          0.05325690	          0.07540412	          0.19633920	          0.06268568	          0.01000020	          0.15147009	          0.01000022	          0.01000023	          0.43169527	
          1.98805599	         -3.40406749	          2.37507576	         -7.46077670	          2.49032333	          0.98088204	         -0.00177052	        -14.02177369	         -5.72357555	         -7.39844341	        -23.74102848	         -2.47037787	         40.03056283	         28.02727150	          0.39148844	         -8.62416111	        -16.57051580	          1.37228872	          0.08320989	        -11.65910396	         -2.41893877	          4.74204041	          0.07931376	          0.01000011	          0.01000016	          0.01000001	          0.21542851	          0.02055926	          0.06190723	          0.01000002	          0.02953072	          0.01000009	          0.01000001	          0.14501225	          0.05917945	          0.01728511	          0.01687735	          0.05357661	          0.01768076	          0.20700983	          0.31302056	          0.05881489	          0.06219422	          0.20128564	          0.05170384	          0.01000018	          0.19130790	          0.01000035	          0.01000029	          0.37302348	
          2.00079994	         -3.35754125	          2.32142435	         -7.21094605	          2.50876307	          0.98316804	         -0.00249883	        -12.06080981	         -6.16532768	         -8.17032872	        -28.83209969	         -4.39508681	         38.10863634	         27.61810395	          0.49731711	         -8.54011836	        -17.99676588	          2.11053651	          0.17183801	        -11.48304866	         -2.76420112	          4.67611913	          0.07349278	          0.04868522	          0.02227496	          0.01000001	          0.18867760	          0.01695813	          0.05106204	          0.01000002	          0.02435740	          0.01000009	          0.01000001	          0.11960768	          0.04881186	          0.07989361	          0.01392075	          0.04419058	          0.01458331	          0.21301189	          0.25818335	          0.05962053	          0.05129856	          0.16611524	          0.04264590	          0.01000013	          0.21390181	          0.01000022	          0.01000017	          0.31618849	
